<?xml version="1.0" standalone="no"?>
<!DOCTYPE svg PUBLIC "-//W3C//DTD SVG 20010904//EN"
 "http://www.w3.org/TR/2001/REC-SVG-20010904/DTD/svg10.dtd">
<svg version="1.0" xmlns="http://www.w3.org/2000/svg"
 width="1200.000000pt" height="1200.000000pt" viewBox="0 0 1200.000000 1200.000000"
 preserveAspectRatio="xMidYMid meet">
<metadata>
Created by potrace 1.14, written by Peter Selinger 2001-2017
</metadata>
<g transform="translate(0.000000,1200.000000) scale(0.100000,-0.100000)"
fill="#000000" stroke="none">
<path d="M5655 10235 c-453 -42 -867 -139 -1240 -292 -630 -258 -1157 -632
-1604 -1138 -426 -481 -755 -1091 -911 -1689 -199 -763 -199 -1472 1 -2234
107 -408 314 -865 552 -1222 161 -239 308 -421 506 -623 428 -437 890 -748
1456 -980 380 -156 790 -251 1252 -292 624 -55 1336 53 1918 292 538 220 979
510 1389 912 423 415 744 895 970 1449 156 383 250 788 291 1249 55 624 -52
1328 -291 1915 -228 559 -547 1034 -981 1459 -404 395 -843 683 -1378 902
-582 238 -1311 349 -1930 292z m570 -89 c438 -14 959 -134 1403 -325 639 -274
1188 -693 1622 -1237 545 -682 868 -1544 898 -2393 20 -555 -43 -1008 -207
-1501 -257 -769 -722 -1433 -1357 -1940 -682 -545 -1544 -868 -2393 -898 -556
-20 -1001 42 -1499 207 -572 190 -1068 483 -1522 902 -135 125 -309 314 -437
476 -530 668 -851 1534 -881 2372 -20 556 42 1001 207 1499 190 572 483 1068
902 1522 125 135 314 309 476 437 666 529 1531 850 2371 882 103 4 201 6 217
4 17 -1 107 -5 200 -7z"/>
<path d="M6886 9185 c-40 -14 -10 6 -661 -448 l-490 -343 -30 17 c-39 23 -124
54 -205 75 -76 19 -229 14 -320 -10 -181 -49 -367 -202 -447 -366 -52 -106
-72 -180 -80 -295 -9 -142 30 -300 101 -414 l28 -44 22 54 22 54 -23 52 c-44
101 -56 169 -50 288 8 171 62 296 176 413 113 115 271 181 436 182 99 0 179
-19 268 -65 82 -42 119 -44 172 -8 22 15 279 194 570 397 l530 371 157 3 c127
3 157 1 154 -10 -3 -7 -21 -81 -41 -165 -24 -100 -43 -157 -55 -168 -18 -16
-26 -16 -133 6 -162 33 -184 20 -212 -125 -8 -44 -16 -80 -18 -82 -1 -2 -42 9
-90 23 -98 28 -126 25 -163 -14 -21 -23 -24 -35 -24 -109 0 -46 -1 -84 -2 -84
-2 0 -37 9 -78 20 -99 26 -107 25 -145 -13 -30 -30 -34 -41 -51 -155 -10 -68
-21 -127 -24 -131 -3 -4 -40 -31 -83 -61 -43 -29 -89 -67 -104 -84 -24 -29
-25 -35 -20 -106 25 -318 -170 -597 -469 -674 -120 -31 -295 -12 -404 44 -23
12 -45 19 -48 15 -3 -3 -6 -26 -6 -52 l-1 -46 59 -24 c185 -75 385 -66 573 27
135 67 240 171 313 311 57 110 80 207 80 343 l1 111 99 69 c55 37 102 76 104
85 3 9 13 68 22 131 9 63 20 118 23 122 4 4 49 -4 101 -18 52 -13 106 -24 120
-22 25 3 25 3 28 121 1 64 5 117 9 117 3 0 57 -14 120 -32 140 -39 138 -40
164 103 10 56 21 104 24 107 2 3 55 -6 118 -18 l113 -24 47 33 c26 17 51 40
56 50 13 23 111 414 111 440 0 11 -9 25 -20 31 -29 15 -377 11 -424 -5z"/>
<path d="M5158 7915 c-66 -22 -132 -89 -152 -156 -20 -66 -20 -94 0 -152 l16
-47 -41 -47 c-49 -55 -95 -145 -116 -228 -19 -75 -19 -235 0 -298 l14 -48 -34
-45 c-102 -133 -20 -336 143 -352 144 -13 251 91 240 237 -8 110 -93 191 -203
195 -29 1 -56 4 -59 6 -2 3 -10 44 -16 91 -19 141 21 285 104 377 l37 41 33
-20 c83 -49 203 -30 279 44 99 96 100 241 2 341 -65 65 -159 89 -247 61z m153
-108 c19 -12 42 -38 51 -57 l18 -35 -83 -16 c-46 -9 -107 -29 -136 -44 -61
-30 -71 -25 -71 35 0 107 132 177 221 117z m33 -218 c-39 -43 -124 -64 -163
-40 -19 12 100 57 158 60 24 1 24 1 5 -20z m-251 -737 c25 -22 47 -66 47 -92
0 -20 -2 -20 -34 7 -19 15 -49 48 -66 72 l-32 44 33 -7 c18 -3 41 -14 52 -24z
m-144 -55 c11 -19 46 -58 77 -87 62 -59 60 -70 -13 -70 -79 0 -136 76 -114
151 6 21 16 39 21 39 4 0 18 -15 29 -33z"/>
<path d="M6075 7390 l-25 -50 598 0 599 0 26 -24 c14 -13 28 -39 32 -57 3 -19
5 -257 3 -530 -3 -473 -4 -498 -22 -518 -11 -12 -35 -26 -55 -32 -24 -7 -366
-9 -1042 -7 l-1005 3 -75 37 c-72 36 -77 41 -228 229 -85 106 -161 205 -168
221 -8 16 -15 52 -15 80 1 44 7 61 42 111 l40 59 -13 65 -13 64 -65 -93 c-37
-51 -71 -108 -78 -127 -16 -49 -14 -134 6 -183 19 -47 309 -416 362 -461 40
-33 88 -59 154 -81 42 -14 158 -16 1084 -16 l1038 0 45 23 c29 15 54 39 72 68
l28 44 0 536 c0 339 -3 546 -9 563 -19 49 -53 85 -102 105 -46 20 -64 21 -618
21 l-571 0 -25 -50z"/>
<path d="M3787 5285 c-52 -18 -83 -49 -103 -101 -44 -115 46 -233 167 -222 88
9 149 76 149 163 0 78 -51 143 -128 165 -44 12 -38 12 -85 -5z"/>
<path d="M4260 4491 l0 -771 140 0 140 0 0 300 0 300 80 0 c43 0 91 -5 105
-12 17 -8 80 -95 191 -267 92 -141 180 -269 195 -286 l29 -30 152 -3 c135 -3
150 -2 145 13 -6 13 -61 96 -345 515 -24 36 -58 77 -75 92 -17 15 -29 29 -26
32 2 2 33 18 68 36 170 85 262 248 248 440 -11 156 -85 269 -220 335 -121 59
-176 66 -519 72 l-308 5 0 -771z m545 539 c95 -15 165 -56 197 -115 23 -42 28
-62 28 -125 0 -119 -39 -188 -135 -238 -46 -25 -61 -27 -202 -30 l-153 -4 0
254 c0 140 3 258 7 261 10 10 190 8 258 -3z"/>
<path d="M7972 5140 c-30 -12 -37 -33 -63 -182 -12 -70 -25 -132 -29 -138 -4
-6 -42 -16 -86 -23 l-79 -12 -3 -70 c-4 -85 6 -95 94 -95 l63 0 3 -357 c3
-352 3 -359 26 -405 73 -148 276 -192 468 -102 79 37 81 42 37 115 -50 80 -62
88 -108 66 -20 -9 -53 -17 -74 -17 -31 0 -44 6 -65 31 l-26 31 0 318 0 319
141 3 141 3 1 92 2 92 -140 3 -140 3 -5 165 -5 165 -65 2 c-36 1 -75 -2 -88
-7z"/>
<path d="M5841 4814 c-97 -21 -168 -60 -242 -133 -111 -111 -154 -229 -152
-416 4 -354 229 -570 573 -552 154 9 268 49 364 131 l40 33 -48 61 c-58 76
-73 78 -183 22 -98 -51 -173 -65 -251 -49 -31 6 -68 17 -82 24 -41 22 -97 87
-119 137 -15 36 -41 140 -41 165 0 2 154 3 343 3 413 0 387 -8 387 115 0 83
-23 182 -57 249 -23 44 -111 134 -159 162 -54 32 -184 64 -253 63 -31 0 -85
-7 -120 -15z m211 -194 c73 -21 128 -89 143 -177 l7 -43 -246 0 c-277 0 -264
-5 -226 78 35 77 72 114 139 138 44 16 133 18 183 4z"/>
<path d="M7085 4812 c-72 -22 -107 -40 -159 -81 -54 -43 -56 -43 -70 21 -11
50 -29 58 -132 58 l-94 0 0 -545 0 -545 130 0 130 0 0 399 0 400 43 35 c64 53
122 76 192 76 78 0 122 -23 155 -81 l25 -44 3 -393 3 -393 127 3 127 3 3 360
c3 393 -3 457 -47 552 -34 71 -112 144 -179 168 -72 25 -185 28 -257 7z"/>
<path d="M3710 4265 l0 -546 128 3 127 3 3 543 2 542 -130 0 -130 0 0 -545z"/>
</g>
</svg>
